<svg width="177" height="173" viewBox="0 0 177 173" fill="none" xmlns="http://www.w3.org/2000/svg">
<g clip-path="url(#clip0_46_2193)">
<path d="M112.367 38.9071H64.6731C63.5862 38.9085 62.5443 39.3414 61.7757 40.1109C61.0072 40.8804 60.5749 41.9237 60.5736 43.012V149.151L60.027 149.318L48.3269 152.905C47.7724 153.075 47.1735 153.017 46.6616 152.744C46.1497 152.472 45.7667 152.007 45.5967 151.452L10.7944 37.6237C10.625 37.0684 10.6827 36.4686 10.9549 35.956C11.227 35.4433 11.6913 35.0599 12.2456 34.8898L30.2754 29.3619L82.5443 13.3419L100.574 7.81401C100.848 7.72946 101.137 7.69991 101.422 7.72706C101.708 7.75421 101.986 7.83753 102.24 7.97225C102.493 8.10697 102.718 8.29044 102.9 8.51216C103.083 8.73388 103.22 8.98951 103.304 9.2644L112.2 38.3598L112.367 38.9071Z" fill="#F2F2F2"/>
<path d="M122.774 38.3598L112.053 3.2932C111.874 2.70892 111.583 2.16556 111.195 1.69418C110.806 1.2228 110.329 0.832623 109.79 0.545954C109.252 0.259285 108.662 0.0817362 108.054 0.0234609C107.447 -0.0348145 106.834 0.0273254 106.251 0.206323L80.9018 7.9755L28.6357 23.9982L3.28697 31.7701C2.1094 32.1322 1.12341 32.9473 0.545411 34.0365C-0.0325839 35.1258 -0.155358 36.4002 0.204042 37.5799L36.8483 157.423C37.1403 158.376 37.7294 159.209 38.5292 159.802C39.329 160.394 40.2974 160.715 41.2923 160.715C41.7528 160.716 42.2106 160.647 42.6505 160.51L60.0271 155.185L60.5737 155.015V154.443L60.0271 154.61L42.4893 159.988C41.4499 160.305 40.3272 160.196 39.3676 159.686C38.408 159.175 37.6897 158.305 37.3704 157.265L0.728893 37.4185C0.570676 36.9031 0.515534 36.3616 0.566621 35.8249C0.617708 35.2882 0.774017 34.7669 1.02661 34.2908C1.2792 33.8147 1.62311 33.3931 2.03864 33.0503C2.45416 32.7075 2.93315 32.4501 3.44816 32.2928L28.7969 24.5209L81.0631 8.50093L106.412 0.729017C106.802 0.609647 107.209 0.548782 107.617 0.548401C108.494 0.550372 109.346 0.833323 110.051 1.35581C110.755 1.8783 111.274 2.61287 111.531 3.45192L122.203 38.3599L122.373 38.9072H122.941L122.774 38.3598Z" fill="#3F3D56"/>
<path d="M33.5289 34.9793C33.0021 34.9789 32.4894 34.8095 32.0658 34.496C31.6422 34.1824 31.3302 33.7412 31.1754 33.237L27.6552 21.7237C27.5606 21.4144 27.5278 21.0895 27.5586 20.7676C27.5894 20.4456 27.6833 20.1328 27.8348 19.8472C27.9864 19.5616 28.1926 19.3086 28.4418 19.1028C28.691 18.897 28.9782 18.7423 29.2871 18.6477L77.3715 3.90739C77.9953 3.7168 78.6691 3.7818 79.2451 4.08813C79.821 4.39447 80.2521 4.9171 80.4436 5.54133L83.9639 17.0548C84.1541 17.6794 84.0891 18.354 83.7832 18.9307C83.4773 19.5074 82.9554 19.939 82.3321 20.1309L34.2475 34.8712C34.0147 34.9428 33.7725 34.9792 33.5289 34.9793Z" fill="#7052CC"/>
<path d="M51.9692 12.3023C54.988 12.3023 57.4352 9.85183 57.4352 6.82907C57.4352 3.80632 54.988 1.3559 51.9692 1.3559C48.9504 1.3559 46.5032 3.80632 46.5032 6.82907C46.5032 9.85183 48.9504 12.3023 51.9692 12.3023Z" fill="#7052CC"/>
<path d="M51.9693 10.2949C53.8809 10.2949 55.4306 8.74317 55.4306 6.82907C55.4306 4.91497 53.8809 3.36328 51.9693 3.36328C50.0577 3.36328 48.5081 4.91497 48.5081 6.82907C48.5081 8.74317 50.0577 10.2949 51.9693 10.2949Z" fill="white"/>
<path d="M164.701 159.317H72.3255C71.7096 159.316 71.1191 159.071 70.6836 158.635C70.2481 158.199 70.0032 157.608 70.0024 156.991V46.1591C70.0031 45.5424 70.2481 44.9511 70.6836 44.5151C71.1191 44.079 71.7096 43.8337 72.3255 43.833H164.701C165.317 43.8337 165.908 44.079 166.343 44.5151C166.779 44.9512 167.024 45.5424 167.024 46.1591V156.991C167.024 157.608 166.779 158.199 166.343 158.635C165.908 159.071 165.317 159.316 164.701 159.317Z" fill="#E6E6E6"/>
<path d="M122.203 38.3598H64.673C63.4413 38.3615 62.2605 38.8523 61.3896 39.7243C60.5187 40.5964 60.0286 41.7787 60.0269 43.012V154.61L60.5735 154.443V43.012C60.5748 41.9237 61.0071 40.8804 61.7756 40.1109C62.5442 39.3413 63.5861 38.9084 64.673 38.9071H122.372L122.203 38.3598ZM172.354 38.3598H64.673C63.4413 38.3615 62.2605 38.8523 61.3896 39.7243C60.5187 40.5964 60.0286 41.7787 60.0269 43.012V168.348C60.0286 169.581 60.5187 170.763 61.3896 171.635C62.2605 172.508 63.4413 172.998 64.673 173H172.354C173.585 172.998 174.766 172.508 175.637 171.635C176.508 170.763 176.998 169.581 177 168.348V43.012C176.998 41.7787 176.508 40.5964 175.637 39.7243C174.766 38.8523 173.585 38.3615 172.354 38.3598ZM176.453 168.348C176.452 169.436 176.02 170.479 175.251 171.249C174.483 172.018 173.441 172.451 172.354 172.453H64.673C63.5861 172.451 62.5442 172.018 61.7756 171.249C61.0071 170.479 60.5748 169.436 60.5735 168.348V43.012C60.5748 41.9237 61.0071 40.8804 61.7756 40.1109C62.5442 39.3413 63.5861 38.9084 64.673 38.9071H172.354C173.441 38.9084 174.483 39.3413 175.251 40.1109C176.02 40.8804 176.452 41.9237 176.453 43.012V168.348Z" fill="#3F3D56"/>
<path d="M143.657 50.4008H93.3699C92.7177 50.4001 92.0925 50.1404 91.6314 49.6786C91.1703 49.2169 90.9109 48.5909 90.9102 47.9379V35.8969C90.9109 35.2439 91.1703 34.6179 91.6314 34.1561C92.0925 33.6944 92.7177 33.4347 93.3699 33.434H143.657C144.309 33.4347 144.935 33.6944 145.396 34.1561C145.857 34.6179 146.116 35.2439 146.117 35.8969V47.9379C146.116 48.5909 145.857 49.2169 145.396 49.6786C144.935 50.1404 144.309 50.4001 143.657 50.4008Z" fill="#7052CC"/>
<path d="M118.513 34.255C121.532 34.255 123.979 31.8045 123.979 28.7818C123.979 25.759 121.532 23.3086 118.513 23.3086C115.495 23.3086 113.047 25.759 113.047 28.7818C113.047 31.8045 115.495 34.255 118.513 34.255Z" fill="#7052CC"/>
<path d="M118.513 32.1154C120.352 32.1154 121.843 30.6229 121.843 28.7817C121.843 26.9406 120.352 25.4481 118.513 25.4481C116.675 25.4481 115.184 26.9406 115.184 28.7817C115.184 30.6229 116.675 32.1154 118.513 32.1154Z" fill="white"/>
</g>
<defs>
<clipPath id="clip0_46_2193">
<rect width="177" height="173" fill="white"/>
</clipPath>
</defs>
</svg>
