<svg width="18" height="22" viewBox="0 0 18 22" fill="none" xmlns="http://www.w3.org/2000/svg">
<path d="M9.00928 0.5C6.822 0.502481 4.72502 1.37247 3.17839 2.91911C1.63175 4.46575 0.761759 6.56273 0.759277 8.75C0.759277 15.8094 8.25928 21.1437 8.57803 21.3687C8.70577 21.4538 8.85581 21.4992 9.00928 21.4992C9.16275 21.4992 9.31279 21.4538 9.44053 21.3687C9.75928 21.1437 17.2593 15.8094 17.2593 8.75C17.2568 6.56273 16.3868 4.46575 14.8402 2.91911C13.2935 1.37247 11.1966 0.502481 9.00928 0.5ZM9.00928 5.75C9.60262 5.75 10.1826 5.92595 10.676 6.25559C11.1693 6.58524 11.5539 7.05377 11.7809 7.60195C12.008 8.15013 12.0674 8.75333 11.9516 9.33527C11.8359 9.91721 11.5502 10.4518 11.1306 10.8713C10.711 11.2909 10.1765 11.5766 9.59455 11.6924C9.01261 11.8081 8.40941 11.7487 7.86123 11.5216C7.31305 11.2946 6.84451 10.9101 6.51487 10.4167C6.18522 9.92336 6.00928 9.34334 6.00928 8.75C6.00928 7.95435 6.32535 7.19129 6.88796 6.62868C7.45057 6.06607 8.21363 5.75 9.00928 5.75Z" fill="#2E3033"/>
</svg>
